<svg width="512" height="512" viewBox="0 0 512 512" fill="none" xmlns="http://www.w3.org/2000/svg">
<path d="M259.752 53.5916L490.957 454.051C492.625 456.939 490.54 460.55 487.205 460.55H24.7948C21.4596 460.55 19.375 456.939 21.0427 454.051L252.248 53.5916C253.915 50.7032 258.085 50.7031 259.752 53.5916Z" fill="#F0F0F0" stroke="#FF0000" stroke-width="40.8505"/>
<path d="M256 201.004C242.327 201.004 231.242 212.089 231.242 225.762L247.747 348.801C247.747 353.359 251.442 357.054 256 357.054C260.558 357.054 264.253 353.359 264.253 348.801L280.758 225.762C280.758 212.089 269.673 201.004 256 201.004Z" fill="#002B55"/>
<circle cx="256.25" cy="384.063" r="16.5053" fill="#002B55"/>
</svg>
